HIERARCHY
ROOT hip
{
	OFFSET 0.000000 0.000000 0.000000 
	CHANNELS 6 Xposition Yposition Zposition Xrotation Zrotation Yrotation
	JOINT abdomen
	{
		OFFSET 0.000000 3.402643 0.000000 
		CHANNELS 3 Xrotation Zrotation Yrotation
		JOINT chest
		{
			OFFSET 0.000000 8.438565 -0.680529 
			CHANNELS 3 Xrotation Zrotation Yrotation
			JOINT neck
			{
				OFFSET 0.000000 10.207942 -0.272212 
				CHANNELS 3 Xrotation Zrotation Yrotation
				JOINT head
				{
					OFFSET 0.000000 3.130431 0.000000 
					CHANNELS 3 Xrotation Zrotation Yrotation
					End Site
					{
						OFFSET 0.000000 3.130435 0.000000 
					}
				}
			}
			JOINT lCollar
			{
				OFFSET 3.470700 6.669187 -0.816635 
				CHANNELS 3 Yrotation Zrotation Xrotation
				JOINT lShldr
				{
					OFFSET 3.198488 0.000000 0.000000 
					CHANNELS 3 Zrotation Yrotation Xrotation
					JOINT lForeArm
					{
						OFFSET 10.139888 0.000000 0.000000 
						CHANNELS 3 Yrotation Zrotation Xrotation
						JOINT lHand
						{
							OFFSET 8.370511 0.000000 0.000000 
							CHANNELS 3 Zrotation Yrotation Xrotation
							End Site
							{
								OFFSET 4.083176 0.000000 0.000000 
							}
						}
					}
				}
			}
			JOINT rCollar
			{
				OFFSET -3.470700 6.669187 -0.816635 
				CHANNELS 3 Yrotation Zrotation Xrotation
				JOINT rShldr
				{
					OFFSET -3.198488 0.000000 0.000000 
					CHANNELS 3 Zrotation Yrotation Xrotation
					JOINT rForeArm
					{
						OFFSET -10.139888 0.000000 0.000000 
						CHANNELS 3 Yrotation Zrotation Xrotation
						JOINT rHand
						{
							OFFSET -8.370511 0.000000 0.000000 
							CHANNELS 3 Zrotation Yrotation Xrotation
							End Site
							{
								OFFSET -4.083176 0.000000 0.000000 
							}
						}
					}
				}
			}
		}
	}
	JOINT lThigh
	{
		OFFSET 5.308129 -1.633274 1.361059 
		CHANNELS 3 Xrotation Zrotation Yrotation
		JOINT lShin
		{
			OFFSET -2.041588 -20.007561 0.000000 
			CHANNELS 3 Xrotation Zrotation Yrotation
			JOINT lFoot
			{
				OFFSET 0.000000 -19.190928 -1.224953 
				CHANNELS 3 Xrotation Yrotation Zrotation
				End Site
				{
					OFFSET 0.000000 -2.449906 4.627600 
				}
			}
		}
	}
	JOINT rThigh
	{
		OFFSET -5.308129 -1.633274 1.361059 
		CHANNELS 3 Xrotation Zrotation Yrotation
		JOINT rShin
		{
			OFFSET 2.041588 -20.007561 0.000000 
			CHANNELS 3 Xrotation Zrotation Yrotation
			JOINT rFoot
			{
				OFFSET 0.000000 -19.190928 -1.224953 
				CHANNELS 3 Xrotation Yrotation Zrotation
				End Site
				{
					OFFSET 0.000000 -2.449906 4.627600 
				}
			}
		}
	}
}
MOTION
Frames: 13
Frame Time: 0.016667
-0.717578 37.915119 -0.859183 7.012020 -0.533092 -4.548080 -13.327900 3.242270 2.577910 12.331800 1.324130 1.468830 4.060940 -20.472799 21.637699 10.029700 -0.031916 10.271600 2.000000 -2.000000 0.000000 -78.919601 -3.771580 144.098999 58.506401 -0.286271 0.116631 0.044735 -0.005715 -138.962997 -2.000000 2.000000 0.000000 77.161903 -1.226640 132.067993 -61.934101 0.279173 0.120646 1.472380 -0.956100 -129.858002 -57.081478 2.716641 4.103780 44.128010 2.268506 3.098541 2.904502 3.788052 -0.875580 -31.505354 5.903459 -12.824722 67.716454 -0.155787 -4.458004 -26.681345 -9.325217 -4.134883 
-0.732412 38.120651 -1.298058 7.060590 -0.203523 -4.527200 -13.355500 3.121920 2.615250 12.224900 1.130520 1.494640 3.893650 -20.583000 21.800800 10.020000 -0.041609 10.319400 2.000000 -2.000000 0.000000 -78.958099 -3.430520 143.716995 58.516102 -0.286251 0.116644 0.044779 -0.006835 -139.363007 -2.000000 2.000000 0.000000 76.887497 -1.372210 131.492004 -61.807201 0.279440 0.120503 1.473520 -0.957477 -129.925995 -57.314106 2.565230 1.995705 46.862988 2.080513 3.261890 0.642768 3.196657 -0.412867 -31.659651 5.601727 -12.885310 66.813988 -0.218345 -4.420506 -26.383596 -9.315745 -4.014657 
-0.713723 38.340466 -1.716170 7.119270 0.348852 -4.614570 -13.372700 2.918820 2.652790 12.098500 0.927305 1.512520 3.788380 -20.654600 21.928400 10.029700 -0.041628 10.368300 2.000000 -2.000000 0.000000 -79.035301 -3.412110 143.130997 58.135300 -0.287024 0.116166 0.044780 -0.006863 -139.373001 -2.000000 2.000000 0.000000 76.613297 -1.459390 131.042007 -61.670399 0.279727 0.120348 1.464570 -0.958460 -129.975006 -57.214745 2.263513 0.439093 49.588490 1.858668 3.437297 -0.208102 3.164228 -0.151836 -32.013142 5.033793 -12.635004 66.265800 -0.247578 -4.418675 -26.107670 -8.669566 -3.584372 
-0.695033 38.560154 -2.134293 7.188390 0.901066 -4.700670 -13.390300 2.721830 2.679070 11.981700 0.733892 1.529980 3.693400 -20.734900 22.058701 10.039500 -0.031936 10.408300 2.000000 -2.000000 0.000000 -79.112602 -3.393690 142.544998 57.764198 -0.287775 0.115697 0.044781 -0.006890 -139.382996 -2.000000 2.000000 0.000000 76.329300 -1.556360 130.602997 -61.523998 0.280035 0.120182 1.472890 -0.953189 -130.024002 -57.165413 1.967945 -1.129009 52.410233 1.634852 3.613954 -1.071849 3.111867 0.102585 -32.363583 4.483751 -12.403432 65.715218 -0.317953 -4.384499 -25.868471 -8.066030 -3.189631 
-0.642645 38.782932 -2.538026 7.335990 1.336630 -4.866820 -13.379800 2.597610 2.678990 11.943000 0.550362 1.537730 3.596890 -20.765499 22.205299 10.020100 0.006952 10.461300 2.000000 -2.000000 0.000000 -79.248901 -3.267330 142.233002 57.451698 -0.288405 0.115297 0.044832 -0.007983 -139.772995 -2.000000 2.000000 0.000000 75.840500 -1.438760 130.339005 -61.543499 0.279994 0.120204 1.482960 -0.946448 -130.317001 -56.926498 1.796650 -2.351300 55.297077 1.421688 3.749273 -1.456469 2.982436 0.282933 -32.760277 4.046943 -12.273984 64.922356 -0.337833 -4.368223 -25.111996 -7.942195 -3.004061 
-0.590255 39.005829 -2.941780 7.484070 1.771890 -5.030750 -13.369600 2.479460 2.667480 11.894400 0.357207 1.547140 3.511030 -20.805700 22.348400 10.010400 0.045821 10.514200 2.000000 -2.000000 0.000000 -79.375298 -3.140980 141.910004 57.139198 -0.289032 0.114894 0.044890 -0.009075 -140.164001 -2.000000 2.000000 0.000000 75.351700 -1.321170 130.076004 -61.572800 0.279932 0.120238 1.483160 -0.939528 -130.610992 -56.676334 1.636046 -3.552485 58.115505 1.189437 3.889242 -1.777561 2.804368 0.462596 -33.238876 3.597497 -12.166599 64.294876 -0.384478 -4.349950 -24.451391 -7.850708 -2.815879 
-0.511687 39.192188 -3.321190 7.583930 2.236150 -5.268600 -13.398200 2.390370 2.678400 11.777300 0.221978 1.557520 3.650410 -21.139400 22.447500 10.107900 -0.032073 10.554800 2.000000 -2.000000 0.000000 -79.550797 -2.907050 141.675003 56.787601 -0.289735 0.114437 0.044915 -0.009512 -140.320007 -2.000000 2.000000 0.000000 74.745903 -1.233010 129.899994 -61.348202 0.280403 0.119982 1.483870 -0.943960 -130.513000 -56.085468 1.479344 -4.526525 60.853924 0.975436 4.015783 -1.721240 2.304448 0.577802 -33.582062 3.204077 -12.026151 63.784389 -0.427900 -4.323898 -24.136122 -7.762122 -2.685461 
-0.433115 39.378540 -3.700635 7.684360 2.700180 -5.504900 -13.426900 2.310800 2.686720 11.660100 0.086833 1.578200 3.801090 -21.472799 22.538300 10.205400 -0.100230 10.596200 2.000000 -2.000000 0.000000 -79.735901 -2.682900 141.429993 56.436100 -0.290436 0.113976 0.044944 -0.009976 -140.485992 -2.000000 2.000000 0.000000 74.140099 -1.154620 129.725006 -61.133301 0.280853 0.119735 1.474810 -0.948363 -130.414993 -55.533951 1.328157 -5.502615 63.523888 0.751441 4.141460 -1.559562 1.802451 0.711730 -33.930626 2.808909 -11.883454 63.255596 -0.460008 -4.319562 -23.803104 -7.628954 -2.536885 
-0.332264 39.521519 -4.048052 7.843910 3.144190 -5.875240 -13.436000 2.257180 2.709250 11.650400 -0.019296 1.594820 3.854610 -21.681299 22.672899 10.254100 -0.148861 10.659100 2.000000 -2.000000 0.000000 -79.872398 -2.380360 141.322006 56.084499 -0.291133 0.113510 0.044993 -0.010740 -140.759995 -2.000000 2.000000 0.000000 73.573502 -0.929784 129.578995 -60.996601 0.281138 0.119577 1.483440 -0.947023 -130.347000 -54.616745 1.244606 -6.349646 65.693405 0.564593 4.248325 -1.240902 0.810209 0.810302 -34.356922 2.522346 -11.445532 62.803623 -0.507016 -4.291081 -23.470102 -7.390354 -2.344848 
-0.231408 39.664505 -4.395482 7.994290 3.587930 -6.254030 -13.445000 2.194080 2.734080 11.640600 -0.115771 1.609960 3.908940 -21.900299 22.793200 10.293100 -0.197466 10.712300 2.000000 -2.000000 0.000000 -80.009003 -2.087580 141.223999 55.732899 -0.291828 0.113040 0.045046 -0.011504 -141.033005 -2.000000 2.000000 0.000000 73.006798 -0.695172 129.423004 -60.859901 0.281423 0.119419 1.474840 -0.951966 -130.278000 -53.717999 1.158924 -7.177298 67.930298 0.382858 4.332796 -0.917404 -0.146878 0.896311 -34.871918 2.211411 -10.978004 62.392269 -0.524968 -4.282065 -23.095144 -7.152526 -2.151207 
-0.132229 39.783810 -4.718375 8.097920 4.186500 -6.787140 -13.462400 2.113490 2.822700 11.630800 -0.173653 1.648370 4.065500 -22.044399 22.931900 10.351700 -0.197565 10.790200 2.000000 -2.000000 0.000000 -80.164902 -1.795020 140.998993 55.244598 -0.292788 0.112380 0.045074 -0.011885 -141.169998 -2.000000 2.000000 0.000000 72.469398 -0.509434 129.296005 -60.625500 0.281911 0.119145 1.464200 -0.961538 -129.819000 -52.442375 1.055452 -7.694392 69.852303 0.233186 4.385182 -0.331606 -1.540921 0.979086 -35.364010 1.827482 -10.373824 62.019512 -0.562920 -4.272295 -22.817833 -7.031826 -2.031132 
-0.033047 39.903248 -5.041291 8.202490 4.775100 -7.310510 -13.480100 2.039000 2.899980 11.621000 -0.231531 1.686790 4.223050 -22.198900 23.059401 10.410300 -0.197664 10.858400 2.000000 -2.000000 0.000000 -80.320801 -1.502470 140.774002 54.746601 -0.293761 0.111698 0.045101 -0.012240 -141.296997 -2.000000 2.000000 0.000000 71.941803 -0.323710 129.179001 -60.400902 0.282378 0.118881 1.470680 -0.964522 -129.360001 -51.254288 0.945455 -8.204890 71.726486 0.071209 4.450011 0.397373 -2.910746 1.056315 -35.931385 1.440486 -9.771705 61.685776 -0.583498 -4.251301 -22.544580 -6.938821 -1.906550 
0.079079 39.984062 -5.329023 8.295710 5.170240 -7.850260 -13.449800 2.046730 2.948420 11.728400 -0.221948 1.704390 4.259660 -22.469500 23.152300 10.429700 -0.265628 10.909200 2.000000 -2.000000 0.000000 -80.593597 -1.268890 140.343994 54.131302 -0.294956 0.110844 0.045137 -0.012703 -141.462997 -2.000000 2.000000 0.000000 71.336304 0.018145 129.141006 -60.371601 0.282438 0.118847 1.462560 -0.966541 -129.457001 -49.743320 0.954487 -8.771696 73.188156 -0.047188 4.493186 1.591105 -4.382209 1.180832 -36.314209 1.226851 -9.271317 61.243896 -0.625441 -4.226978 -21.865707 -7.113227 -1.874219 
